<?xml version="1.0" encoding="UTF-8"?>
<svg version="1.1" xmlns="http://www.w3.org/2000/svg" width="1663" height="936">
<path d="M0 0 C6.0889703 4.64468624 11.19705418 10.05951438 16 16 C16.969375 15.175 17.93875 14.35 18.9375 13.5 C19.58460938 12.95214844 20.23171875 12.40429688 20.8984375 11.83984375 C22.29190661 10.61991075 23.65267277 9.36151577 24.9765625 8.06640625 C40.87623359 -7.20799688 61.79682884 -10.52831068 82.91015625 -10.28125 C101.31547091 -9.71327238 115.9489187 -1.43699549 128.625 11.5 C139.02169038 23.46356748 145.13497435 40.0375432 145.12025452 55.84664917 C145.12231651 57.56288734 145.12231651 57.56288734 145.12442017 59.313797 C145.12082489 60.55457504 145.11722961 61.79535309 145.11352539 63.07373047 C145.11367142 64.39133865 145.11381744 65.70894684 145.1139679 67.06648254 C145.11425409 70.66726582 145.10838617 74.26801559 145.10139394 77.8687911 C145.09513072 81.63641279 145.09455425 85.40403529 145.09336853 89.17166138 C145.09026396 96.30070316 145.08206237 103.42972956 145.07201904 110.55876458 C145.05873755 120.19611443 145.05335093 129.8334685 145.04751682 139.4708252 C145.03812188 154.64722832 145.01819712 169.82359897 145 185 C123.22 185 101.44 185 79 185 C78.96132813 171.96371094 78.96132813 171.96371094 78.921875 158.6640625 C78.89349777 152.44807423 78.86263075 146.23213729 78.8281765 140.01618385 C78.78390964 131.97026125 78.74545776 123.9244507 78.72900391 115.87841797 C78.71595463 109.50645777 78.68890711 103.13473303 78.64538693 96.76290548 C78.62284509 93.39226886 78.60708489 90.02192183 78.60811615 86.65120316 C78.60574295 82.87860315 78.57863171 79.10691491 78.54589844 75.33447266 C78.5509288 74.22963531 78.55595917 73.12479797 78.56114197 71.98648071 C78.45998759 64.42307693 77.52537674 56.85210818 72.22088242 51.05599403 C65.98375153 45.41648121 60.99951551 44.49031714 52.62109375 44.62109375 C46.04982331 45.30870242 40.57227593 47.9424757 36.0625 52.8125 C29.94045211 62.27384674 29.85607679 72.31595817 29.79467773 83.28125 C29.78477814 84.38457169 29.77487854 85.48789337 29.76467896 86.62464905 C29.73324271 90.24974465 29.70837755 93.87485333 29.68359375 97.5 C29.66300877 100.02205738 29.6420119 102.54411144 29.62062073 105.06616211 C29.57117889 111.01221342 29.52587268 116.95828702 29.48259836 122.90438557 C29.41949682 131.53407256 29.34796509 140.16369046 29.27747345 148.7933197 C29.17966475 160.86217933 29.09067127 172.93107513 29 185 C7.22 185 -14.56 185 -37 185 C-37.03738281 176.29753906 -37.07476563 167.59507812 -37.11328125 158.62890625 C-37.14741587 152.40789374 -37.1834077 146.18691366 -37.22207737 139.96592999 C-37.27189605 131.91162991 -37.31736389 123.85738308 -37.34643555 115.80297852 C-37.36947094 109.42483341 -37.40293034 103.04684092 -37.44870156 96.66881698 C-37.47255952 93.29434631 -37.49133672 89.92002608 -37.49761391 86.5454731 C-37.50726155 82.77040391 -37.53533078 78.99588138 -37.56762695 75.22094727 C-37.56619186 74.11251465 -37.56475677 73.00408203 -37.5632782 71.86206055 C-37.65663798 64.12635891 -38.29791239 57.18707769 -43.4375 51.125 C-51.09588184 44.77414677 -57.03528207 44.0834591 -67 45 C-73.56822504 46.87163803 -77.88849076 50.24621682 -81.84375 55.7421875 C-85.35179297 62.59235248 -85.30398828 69.26485698 -85.31884766 76.81030273 C-85.32889328 77.98175339 -85.3389389 79.15320404 -85.34928894 80.3601532 C-85.38008864 84.2179619 -85.39714746 88.07570128 -85.4140625 91.93359375 C-85.43277672 94.61402896 -85.45225471 97.29444772 -85.4727478 99.97486877 C-85.51943471 106.29989391 -85.55622743 112.62493591 -85.58942068 118.95004469 C-85.6314739 126.86194005 -85.68681393 134.77373545 -85.7421875 142.68554688 C-85.84084619 156.79030959 -85.9194853 170.89509614 -86 185 C-108.11 185 -130.22 185 -153 185 C-153 121.64 -153 58.28 -153 -7 C-132.87 -7 -112.74 -7 -92 -7 C-90.79476037 -1.57642165 -89.67938554 3.60416958 -88.875 9.0625 C-88.70742188 10.18785156 -88.53984375 11.31320312 -88.3671875 12.47265625 C-88.24601563 13.30667969 -88.12484375 14.14070312 -88 15 C-87.45472656 14.35933594 -86.90945313 13.71867188 -86.34765625 13.05859375 C-78.28312445 3.80850684 -70.5143496 -2.57887842 -59 -7 C-58.21753906 -7.32097656 -57.43507813 -7.64195312 -56.62890625 -7.97265625 C-37.95706901 -14.39576826 -16.41560398 -9.95700569 0 0 Z " fill="#404040" transform="translate(811,543)"/>
<path d="M0 0 C1.05273605 0.00273422 1.05273605 0.00273422 2.1267395 0.00552368 C13.0859553 0.05334787 23.65141598 0.61964364 34.3125 3.3125 C35.35519043 3.56990967 35.35519043 3.56990967 36.41894531 3.83251953 C59.56481127 9.71091808 80.88492371 20.11174966 99.3125 35.3125 C100.97783228 36.64749961 102.64405585 37.98139156 104.3125 39.3125 C102.6856545 42.9663776 100.44558374 45.90845747 98 49.0625 C97.56631104 49.62251709 97.13262207 50.18253418 96.68579102 50.75952148 C92.57137439 56.04266676 88.33088884 61.22176111 84.08984375 66.40332031 C79.32285031 72.24829139 74.77116218 78.229364 70.3125 84.3125 C66.18443173 83.74551231 63.45521709 81.32932524 60.25 78.875 C38.76531807 63.06763233 16.01692754 55.48022541 -10.6875 57.3125 C-17.33582931 58.57623202 -22.51108302 60.78885174 -26.6875 66.3125 C-29.02950519 70.43889009 -29.2479656 74.66339192 -28.6875 79.3125 C-26.52009311 85.95018361 -21.34775087 90.095169 -15.52734375 93.62109375 C-3.45881655 99.6062983 10.34536038 102.61295763 23.24609375 106.29296875 C35.69211114 109.86617461 47.70514873 113.52938047 59.3125 119.3125 C60.84197266 120.06660156 60.84197266 120.06660156 62.40234375 120.8359375 C79.69351636 129.80173071 93.04720569 143.59077449 99.25 162.25 C105.3078027 181.45015431 103.30976607 202.34241695 94.3125 220.3125 C82.54818141 241.69414903 63.62368566 254.2459404 40.6875 261.125 C1.21842604 272.24174886 -44.04270951 266.10409661 -79.82470703 246.37158203 C-90.19765246 240.47409353 -100.21619311 233.78380689 -108.6875 225.3125 C-108.33278053 222.21422247 -107.18481835 220.36798471 -105.203125 218.01953125 C-104.6862915 217.39747803 -104.16945801 216.7754248 -103.63696289 216.13452148 C-102.79572876 215.13980835 -102.79572876 215.13980835 -101.9375 214.125 C-96.51289774 207.59290319 -91.28315248 200.94641384 -86.17871094 194.16137695 C-82.83186918 189.73353759 -79.33710676 185.49513428 -75.6875 181.3125 C-72.57623083 182.79799325 -69.92897105 184.56141864 -67.171875 186.63793945 C-45.31591136 203.01452932 -18.37366605 211.858924 9.0390625 209.03125 C16.52892261 207.82545209 23.69983429 205.18005993 28.875 199.5 C31.31241966 194.09528684 32.03433785 189.72883371 30.1875 184.125 C26.51879658 175.8340535 19.27756366 172.71861275 11.3125 169.3125 C2.81654266 166.03496473 -5.86568082 163.50565258 -14.65625 161.14453125 C-15.36828079 160.95287888 -16.08031158 160.7612265 -16.81391907 160.56376648 C-20.38779035 159.60460498 -23.96445809 158.6590083 -27.54760742 157.73510742 C-51.56305451 151.4529168 -76.71301765 141.00804337 -90.6875 119.3125 C-97.38378365 107.20415149 -100.25553877 95.2857159 -100.125 81.5 C-100.11670166 80.36143555 -100.10840332 79.22287109 -100.09985352 78.04980469 C-99.68720988 57.42643374 -91.61277252 40.72286835 -77.3828125 25.9140625 C-56.95715546 6.29203786 -27.45799582 -0.14853598 0 0 Z " fill="#009AFE" transform="translate(395.6875,125.6875)"/>
<path d="M0 0 C8.20257716 6.96282923 16.52659919 14.63458415 22.2421875 23.8125 C21.07176224 27.32377579 20.5461044 27.49751845 17.4296875 29.203125 C16.61322754 29.65816406 15.79676758 30.11320312 14.95556641 30.58203125 C13.61244385 31.31486328 13.61244385 31.31486328 12.2421875 32.0625 C10.33187779 33.12760194 8.42308979 34.19543652 6.515625 35.265625 C5.50081055 35.83474609 4.48599609 36.40386719 3.44042969 36.99023438 C-3.21715478 40.78353288 -9.75793754 44.77411693 -16.31640625 48.73535156 C-18.27163386 49.91542603 -20.22946858 51.09119651 -22.19042969 52.26171875 C-23.77422811 53.2183836 -25.3458003 54.19607541 -26.89550781 55.20703125 C-31.18015926 57.92845617 -31.18015926 57.92845617 -33.87890625 57.38671875 C-36.38324163 55.28849181 -38.5864903 53.01015625 -40.8203125 50.625 C-51.55705445 39.55131963 -64.4998881 32.84053863 -80.00463867 32.52001953 C-95.70063264 32.40588709 -109.16522765 35.52723378 -121.26171875 46.21875 C-137.42755911 63.43980187 -142.56823438 86.30128775 -142.0078125 109.34375 C-141.44350716 122.05190618 -139.18355467 134.24624723 -133.7578125 145.8125 C-133.38914062 146.6065625 -133.02046875 147.400625 -132.640625 148.21875 C-125.86734238 161.48504148 -115.57214946 171.30560707 -101.4453125 176.25 C-97.21862567 177.49282113 -93.16515222 178.4919662 -88.7578125 178.8125 C-87.99726562 178.87566406 -87.23671875 178.93882812 -86.453125 179.00390625 C-70.41274551 179.74166851 -56.27137351 173.75863875 -44.3828125 163.25 C-41.60306878 160.6528997 -38.96939041 157.97453769 -36.3828125 155.1875 C-35.5165625 154.40375 -34.6503125 153.62 -33.7578125 152.8125 C-30.46367199 153.1491275 -27.92262068 154.7197988 -25.1015625 156.375 C-24.17408203 156.91688965 -23.24660156 157.4587793 -22.29101562 158.01708984 C-21.29005859 158.6095752 -20.28910156 159.20206055 -19.2578125 159.8125 C-18.22076172 160.42174316 -17.18371094 161.03098633 -16.11523438 161.65869141 C-3.25027007 169.2445973 9.49969176 177.023209 22.2421875 184.8125 C20.54161491 189.40614065 18.11661798 192.76234376 14.9296875 196.4375 C14.39915771 197.04996582 13.86862793 197.66243164 13.32202148 198.29345703 C-8.58856009 223.0010658 -40.09018874 236.23984641 -72.67626953 238.4753418 C-110.0797163 240.49688234 -145.52232653 231.00788202 -173.7578125 205.8125 C-198.95974859 182.91778341 -212.42930062 150.68268189 -214.6328125 116.94140625 C-215.6834874 90.64170027 -212.84141823 64.5361664 -200.7578125 40.8125 C-200.42265625 40.14379883 -200.0875 39.47509766 -199.7421875 38.78613281 C-194.59688172 28.66351164 -188.48052609 20.11483712 -180.7578125 11.8125 C-179.95601562 10.92949219 -179.15421875 10.04648438 -178.328125 9.13671875 C-159.43723392 -10.77613856 -133.54304967 -21.94701257 -106.7578125 -26.1875 C-105.60796875 -26.37054688 -104.458125 -26.55359375 -103.2734375 -26.7421875 C-66.55000835 -31.11150995 -29.0415749 -23.66585178 0 0 Z " fill="#009AFE" transform="translate(738.7578125,153.1875)"/>
<path d="M0 0 C1.05823471 0.00031723 1.05823471 0.00031723 2.1378479 0.00064087 C13.3419226 0.03412851 23.72910227 0.91885047 34.4375 4.375 C35.58347656 4.73722656 36.72945312 5.09945312 37.91015625 5.47265625 C51.9791728 10.41944991 63.04750467 17.86676859 73.4375 28.375 C74.25089844 29.17808594 75.06429688 29.98117187 75.90234375 30.80859375 C93.21635197 48.83292026 100.44184035 74.30866199 100.43701172 98.85742188 C100.25607218 105.46774635 99.7366839 111.87908049 98.4375 118.375 C54.5475 118.375 10.6575 118.375 -34.5625 118.375 C-29.71693593 130.48891018 -23.94725113 140.02903857 -11.80078125 145.49609375 C7.5900896 153.11031005 29.82898294 150.80054489 48.6953125 142.83422852 C51.24504291 141.72144812 53.76963586 140.56210357 56.28759766 139.37939453 C60.65330918 137.33981502 65.04895979 135.36486616 69.4375 133.375 C69.74864746 133.97747559 70.05979492 134.57995117 70.38037109 135.20068359 C71.85495668 138.05190982 73.33336218 140.90113268 74.8125 143.75 C75.61820435 145.30521362 75.61820435 145.30521362 76.44018555 146.8918457 C79.04770186 151.89832312 81.6878655 156.87235599 84.49609375 161.76953125 C84.96160645 162.58309082 85.42711914 163.39665039 85.90673828 164.23486328 C86.78631075 165.75900793 87.67626171 167.27722127 88.57763672 168.78857422 C91.50048069 173.85715207 91.50048069 173.85715207 91.18164062 176.47875977 C88.87753543 182.35014594 78.31360202 186.04487359 72.79296875 188.49609375 C64.55580885 191.98737285 56.20456642 194.93336009 47.5625 197.25 C46.8514209 197.44102295 46.1403418 197.6320459 45.40771484 197.82885742 C33.30777915 200.85865054 21.1899442 201.7570634 8.75 201.6875 C7.70292877 201.68426727 7.70292877 201.68426727 6.63470459 201.68096924 C-21.04545825 201.54433363 -48.50951995 195.50470618 -69.5625 176.375 C-70.46613281 175.56417969 -71.36976563 174.75335937 -72.30078125 173.91796875 C-90.3168355 156.89865332 -100.03979825 132.89139912 -100.765625 108.1953125 C-101.15295085 80.03154248 -95.44923831 54.09674554 -76.5625 32.375 C-76.10746094 31.776875 -75.65242187 31.17875 -75.18359375 30.5625 C-61.9763179 13.53102786 -39.30762997 4.34966109 -18.70849609 0.77197266 C-12.49282961 -0.01234162 -6.25661621 -0.01731713 0 0 Z M-26.28125 59.0859375 C-31.15470732 64.97884253 -35.5625 73.65247562 -35.5625 81.375 C-12.1325 81.375 11.2975 81.375 35.4375 81.375 C34.32658585 71.37677264 32.14626974 63.34548659 24.5625 56.375 C9.30148229 44.38837689 -12.35449684 45.22248777 -26.28125 59.0859375 Z " fill="#404040" transform="translate(1086.5625,531.625)"/>
<path d="M0 0 C73.26 0 146.52 0 222 0 C222 19.14 222 38.28 222 58 C196.92 58 171.84 58 146 58 C146 123.34 146 188.68 146 256 C122.57 256 99.14 256 75 256 C75 190.66 75 125.32 75 58 C50.25 58 25.5 58 0 58 C0 38.86 0 19.72 0 0 Z " fill="#404040" transform="translate(295,472)"/>
<path d="M0 0 C1.1066954 0.00406357 1.1066954 0.00406357 2.23574829 0.00820923 C14.26964946 0.07494966 25.65411846 1.08463998 37.25 4.4375 C38.24604248 4.71037842 38.24604248 4.71037842 39.26220703 4.98876953 C55.86069276 9.61484812 70.60055044 18.07284788 84.25 28.4375 C83.63549386 32.18512197 81.99270563 34.39616692 79.6875 37.375 C78.49447266 38.93154297 78.49447266 38.93154297 77.27734375 40.51953125 C76.81312012 41.11975098 76.34889648 41.7199707 75.87060547 42.33837891 C73.21559698 45.77733085 70.58093016 49.23178083 67.94555664 52.68579102 C66.48997374 54.59295585 65.03215198 56.49841417 63.57202148 58.40209961 C62.89856689 59.28260986 62.2251123 60.16312012 61.53125 61.0703125 C60.92345703 61.86324707 60.31566406 62.65618164 59.68945312 63.47314453 C58.21123572 65.37507372 58.21123572 65.37507372 57.25 67.4375 C53.17724361 66.82161977 50.2048152 64.57107586 46.875 62.3125 C30.638466 51.63399604 11.56832881 42.40999956 -8.38671875 45.8984375 C-12.37770487 47.01987162 -14.43677319 48.11681541 -17.375 51.125 C-18.84381156 54.66350057 -19.33832772 56.76182026 -18.5859375 60.48828125 C-16.81049321 64.6282191 -13.61100587 66.3865441 -9.75 68.4375 C1.02786767 72.53040287 12.21404079 75.46192563 23.34594727 78.41430664 C43.62411765 83.81353099 63.38128069 91.64754911 75.02734375 110.28125 C83.24518016 125.55155726 84.15493348 141.33032581 79.4375 157.7734375 C76.41104934 167.11163066 71.07727297 173.47893332 64.25 180.4375 C63.71890625 180.99308594 63.1878125 181.54867187 62.640625 182.12109375 C54.7643273 189.61169646 43.92012325 194.25778684 33.625 197.3125 C32.98191895 197.50336182 32.33883789 197.69422363 31.67626953 197.89086914 C-1.88247707 207.09138514 -39.63062145 201.95122541 -69.7734375 184.859375 C-76.05226578 181.13103088 -81.93856753 176.84903114 -87.75 172.4375 C-87.20939301 168.72468987 -86.36250388 166.4891623 -84.01171875 163.57421875 C-83.44404785 162.85927246 -82.87637695 162.14432617 -82.29150391 161.40771484 C-81.67968262 160.65441895 -81.06786133 159.90112305 -80.4375 159.125 C-79.16669946 157.52835317 -77.89719503 155.930674 -76.62890625 154.33203125 C-75.98453613 153.52330566 -75.34016602 152.71458008 -74.67626953 151.88134766 C-71.67587184 148.07475946 -68.77145662 144.1984431 -65.875 140.3125 C-65.35768311 139.61987061 -64.84036621 138.92724121 -64.30737305 138.21362305 C-63.12011445 136.62267618 -61.93481224 135.03026957 -60.75 133.4375 C-57.17489911 134.72729121 -54.4502677 136.26145184 -51.4375 138.5625 C-35.8757577 149.68798442 -14.84949708 159.18914321 4.62890625 156.0546875 C6.86401738 155.59072704 9.05089695 155.04812473 11.25 154.4375 C12.7040625 154.0353125 12.7040625 154.0353125 14.1875 153.625 C16.38800849 152.56139657 16.38800849 152.56139657 17.625 150.375 C18.51633061 146.18574611 18.36765265 142.57583548 17.25 138.4375 C11.1140269 129.12774771 -4.48660127 126.97675166 -14.5625 124.4375 C-17.22823086 123.74590183 -19.89159118 123.04541646 -22.5546875 122.34375 C-23.80862305 122.01375 -25.06255859 121.68375 -26.35449219 121.34375 C-46.00587879 116.09885878 -64.39563101 108.23914476 -75.75 90.4375 C-76.12769531 89.84839844 -76.50539063 89.25929688 -76.89453125 88.65234375 C-84.21337485 75.74157471 -84.13394976 59.91063891 -80.7734375 45.8828125 C-76.02374255 29.8933814 -65.05046888 18.26805383 -50.63427734 10.3984375 C-34.65540267 2.24958407 -17.72134749 -0.15391091 0 0 Z " fill="#404040" transform="translate(1292.75,531.5625)"/>
<path d="M0 0 C11.385 1.485 11.385 1.485 23 3 C38.37510567 3.58019267 51.37828941 1.95271382 67 0 C67 63.36 67 126.72 67 192 C44.89 192 22.78 192 0 192 C0 128.64 0 65.28 0 0 Z " fill="#404040" transform="translate(547,536)"/>
<path d="M0 0 C9.08416471 7.78060744 15.59211188 16.67798388 16.6171875 28.7890625 C17.08626185 39.92824562 15.17337335 49.40674873 7.99609375 58.20703125 C1.57026871 65.19548613 -5.93624245 71.30506733 -15.70703125 72.24365234 C-29.27766102 72.76006238 -39.36466 71.86768001 -50.13671875 62.73828125 C-58.74131749 54.36810267 -62.65921662 45.24066846 -63.13671875 33.17578125 C-62.75808206 21.01207761 -58.42492369 11.8373523 -49.97265625 3.30859375 C-36.60925335 -8.95644727 -14.9142818 -10.77022665 0 0 Z " fill="#019AFD" transform="translate(602.69921875,449.94921875)"/>
<path d="M0 0 C2.31 0 4.62 0 7 0 C9.18754276 6.28882894 11.03151783 12.61495826 12.6875 19.0625 C13.450625 22.011875 14.21375 24.96125 15 28 C17.64 18.76 20.28 9.52 23 0 C25.31 0 27.62 0 30 0 C32.14242643 5.54769072 34.02014294 11.10520227 35.6875 16.8125 C35.91244141 17.56208984 36.13738281 18.31167969 36.36914062 19.08398438 C37.26973854 22.14711225 38 24.78993343 38 28 C38.66 28 39.32 28 40 28 C40.09796875 27.3915625 40.1959375 26.783125 40.296875 26.15625 C41.31880788 20.16560897 42.60040069 14.27098818 44.0625 8.375 C44.2368457 7.66408203 44.41119141 6.95316406 44.59082031 6.22070312 C45.87618787 1.12381213 45.87618787 1.12381213 47 0 C49.33297433 -0.04092937 51.66705225 -0.04241723 54 0 C52.75767247 4.87539109 51.51246646 9.7500347 50.26464844 14.62402344 C49.84101468 16.2803991 49.41815262 17.93697234 48.99609375 19.59375 C48.38747242 21.98230162 47.77603141 24.37011666 47.1640625 26.7578125 C46.97752106 27.49242706 46.79097961 28.22704163 46.5987854 28.98391724 C45.55313399 33.05111929 44.38149655 37.03024508 43 41 C40.69 41 38.38 41 36 41 C33.63068931 34.90951967 31.65724968 28.76759399 29.8125 22.5 C29.53986328 21.5821875 29.26722656 20.664375 28.98632812 19.71875 C28.32167172 17.47990739 27.65961754 15.2403313 27 13 C26.6443396 14.21901001 26.6443396 14.21901001 26.28149414 15.46264648 C25.40256744 18.46943296 24.5207579 21.47535411 23.63696289 24.48071289 C23.25461344 25.78310595 22.87342442 27.08584025 22.4934082 28.38891602 C21.94785875 30.25886324 21.3978256 32.12750055 20.84765625 33.99609375 C20.51773682 35.12200928 20.18781738 36.2479248 19.84790039 37.40795898 C19 40 19 40 18 41 C15.66702567 41.04092937 13.33294775 41.04241723 11 41 C8.12651003 32.18320469 5.66836505 23.26283663 3.25 14.3125 C2.93216553 13.14154785 2.61433105 11.9705957 2.28686523 10.76416016 C1.99110596 9.66249512 1.69534668 8.56083008 1.390625 7.42578125 C1.12282227 6.42973877 0.85501953 5.43369629 0.57910156 4.4074707 C0 2 0 2 0 0 Z " fill="#404040" transform="translate(1190,774)"/>
<path d="M0 0 C7 0 7 0 8.78515625 1.40185547 C9.20667969 2.05041504 9.62820313 2.69897461 10.0625 3.3671875 C10.54976562 4.0890625 11.03703125 4.8109375 11.5390625 5.5546875 C12.02117187 6.32039062 12.50328125 7.08609375 13 7.875 C13.97914742 9.35157526 14.95831429 10.82813763 15.9375 12.3046875 C16.948125 13.85414063 17.95875 15.40359375 19 17 C21.31 20.3 23.62 23.6 26 27 C26.33 18.09 26.66 9.18 27 0 C29.31 0 31.62 0 34 0 C34 13.53 34 27.06 34 41 C27 41 27 41 25.32250977 39.81347656 C24.94924561 39.26143555 24.57598145 38.70939453 24.19140625 38.140625 C23.5413562 37.21648804 23.5413562 37.21648804 22.87817383 36.27368164 C22.22691528 35.27195923 22.22691528 35.27195923 21.5625 34.25 C20.865802 33.23957642 20.865802 33.23957642 20.1550293 32.20874023 C18.74628146 30.1540843 17.37150212 28.07964709 16 26 C15.17343369 24.77628947 14.34539922 23.55356883 13.515625 22.33203125 C11.65437367 19.56985507 9.82367601 16.78712748 8 14 C7.67 22.91 7.34 31.82 7 41 C4.69 41 2.38 41 0 41 C0 27.47 0 13.94 0 0 Z " fill="#404040" transform="translate(1081,774)"/>
<path d="M0 0 C4.5528567 4.06629186 7.06238522 9.38741651 7.7734375 15.37890625 C8.01233396 22.19374201 6.55689952 28.64398678 2.1796875 34.04296875 C-1.92239659 37.78213387 -6.38769017 39.33138854 -11.88671875 39.40234375 C-17.43736176 39.06594114 -22.23238183 38.15123149 -26.46484375 34.37109375 C-31.66486881 27.79339971 -33.22906925 21.66839917 -32.46484375 13.37109375 C-31.23237586 8.29622598 -29.18900647 4.09525647 -25.46484375 0.37109375 C-17.40112943 -4.33273961 -8.14854715 -5.25899142 0 0 Z M-22.46484375 7.37109375 C-25.4170526 12.14419054 -25.9135679 16.77871567 -25.04296875 22.2578125 C-23.94556034 26.26928512 -21.96899847 29.1892579 -18.71484375 31.74609375 C-13.61459341 33.16282996 -9.8592343 33.02882514 -5.15234375 30.80859375 C-1.01495535 27.05607869 0.27547309 23.41146142 0.97265625 17.93359375 C0.29513455 12.41663137 -1.52339046 8.09683 -5.71484375 4.37109375 C-12.27477137 1.98566552 -17.33232465 2.59665738 -22.46484375 7.37109375 Z " fill="#404040" transform="translate(938.46484375,776.62890625)"/>
<path d="M0 0 C5.05678721 4.33438904 8.22089779 8.5801881 8.9609375 15.30078125 C9.05442667 23.1071271 8.56765065 28.81877881 3.26953125 34.7734375 C-0.88365476 38.62599074 -5.20816893 40.20972234 -10.83203125 40.28125 C-18.01226389 39.85065134 -21.81106837 37.58084694 -27.125 32.75 C-31.05325357 27.72844608 -31.50173804 20.93116409 -31.2890625 14.75390625 C-30.32511267 8.57391678 -27.18216942 4.16729264 -22.375 0.25 C-15.23832657 -3.80733101 -7.22310078 -3.74531152 0 0 Z M-22.375 10.25 C-24.17897522 15.66192567 -24.33489615 21.87552005 -22.1875 27.1875 C-18.47142903 31.55404023 -18.47142903 31.55404023 -13.26171875 33.671875 C-9.15294977 33.92047279 -6.24405729 33.62346104 -2.9375 31.0625 C1.31810727 26.39171153 2.03910766 22.63548806 1.875 16.4609375 C1.36791658 11.97641849 -0.55243847 9.16933348 -3.5 5.875 C-10.86329117 1.71313977 -17.20494503 3.9259149 -22.375 10.25 Z " fill="#404040" transform="translate(558.375,775.75)"/>
<path d="M0 0 C3.82728294 3.29324346 7.05733816 6.42201447 8.6875 11.3125 C8.83453064 13.74698818 8.90855339 16.1862477 8.9375 18.625 C8.96328125 19.92050781 8.9890625 21.21601562 9.015625 22.55078125 C8.53690626 28.03894962 6.64035245 31.98811147 2.4375 35.5625 C-2.51405288 39.50100031 -7.11209031 40.55314892 -13.375 40.1875 C-19.18100996 39.4298113 -22.60190212 37.16564771 -26.5625 32.875 C-31.00079191 26.37607256 -31.05428722 19.98072538 -30.3125 12.3125 C-28.64626499 6.37653776 -25.37224215 2.68566143 -20.3125 -0.6875 C-13.50276323 -3.56854248 -6.56280451 -3.34331551 0 0 Z M-21.3125 9.3125 C-23.93299116 13.60057644 -23.8649131 18.42709664 -23.3125 23.3125 C-21.64550938 27.96252647 -19.64183744 30.86548319 -15.3125 33.3125 C-11.4742874 34.07162892 -7.98090059 34.206791 -4.46875 32.32421875 C-0.70122643 29.34159593 1.40708246 26.47106295 2.0234375 21.7265625 C2.10746981 15.72665541 1.88233258 11.97342508 -2.3125 7.3125 C-2.869375 6.69375 -3.42625 6.075 -4 5.4375 C-10.83485505 2.11243538 -16.4354415 3.95963091 -21.3125 9.3125 Z " fill="#404040" transform="translate(1277.3125,775.6875)"/>
<path d="M0 0 C20 0 20 0 28 4 C32.95363848 8.95363848 35.02680131 13.43490271 35.3125 20.375 C35.14661345 25.8584722 34.1587184 30.59609383 30.41796875 34.76171875 C20.98238582 43.25168771 14.18792731 41 0 41 C0 27.47 0 13.94 0 0 Z M7 6 C7 15.57 7 25.14 7 35 C17.34313215 35.58114861 17.34313215 35.58114861 25 31 C28.08840409 26.24943399 28.40215363 21.53646062 27.50390625 16.04296875 C26.46848849 11.84511225 24.98577601 9.71468761 21.5 7.1875 C16.87986653 5.4109567 16.87986653 5.4109567 7 6 Z " fill="#404040" transform="translate(953,774)"/>
<path d="M0 0 C20 0 20 0 27 4 C29.83598926 8.25398389 29.51925943 12.00712089 29 17 C27.35229066 20.87211695 25.34237421 22.57608813 22 25 C22.5775 25.98742187 23.155 26.97484375 23.75 27.9921875 C24.500226 29.28632735 25.25021368 30.58060537 26 31.875 C26.3815625 32.52597656 26.763125 33.17695312 27.15625 33.84765625 C30 38.7734375 30 38.7734375 30 41 C27.36 41 24.72 41 22 41 C20.66141476 38.71125827 19.32898986 36.41930344 18 34.125 C17.6184375 33.47402344 17.236875 32.82304688 16.84375 32.15234375 C14 27.2265625 14 27.2265625 14 25 C11.69 25 9.38 25 7 25 C7 30.28 7 35.56 7 41 C4.69 41 2.38 41 0 41 C0 27.47 0 13.94 0 0 Z M7 6 C7 10.29 7 14.58 7 19 C9.35125 19.061875 9.35125 19.061875 11.75 19.125 C12.63171875 19.14820313 13.5134375 19.17140625 14.421875 19.1953125 C17.17835022 18.98648862 18.73683764 18.57859406 21 17 C22.08333333 13.58333333 22.08333333 13.58333333 22 10 C20.49597949 7.85139927 19.32895015 7.16447508 17 6 C15.29297265 5.93003986 13.58331997 5.91559846 11.875 5.9375 C10.26625 5.958125 8.6575 5.97875 7 6 Z " fill="#404040" transform="translate(444,774)"/>
<path d="M0 0 C19 0 19 0 26 3 C29.32065691 6.6420108 29.32525996 10.10833453 29.30078125 14.81640625 C28.74634901 18.84144028 27.47432883 20.59343243 24.375 23.25 C23.59125 23.8275 22.8075 24.405 22 25 C22.5775 25.98742187 23.155 26.97484375 23.75 27.9921875 C24.500226 29.28632735 25.25021368 30.58060537 26 31.875 C26.3815625 32.52597656 26.763125 33.17695312 27.15625 33.84765625 C30 38.7734375 30 38.7734375 30 41 C27.36 41 24.72 41 22 41 C20.66141476 38.71125827 19.32898986 36.41930344 18 34.125 C17.6184375 33.47402344 17.236875 32.82304688 16.84375 32.15234375 C14 27.2265625 14 27.2265625 14 25 C11.69 25 9.38 25 7 25 C7 30.28 7 35.56 7 41 C4.69 41 2.38 41 0 41 C0 27.47 0 13.94 0 0 Z M7 6 C7 10.29 7 14.58 7 19 C9.35125 19.061875 9.35125 19.061875 11.75 19.125 C12.63171875 19.14820313 13.5134375 19.17140625 14.421875 19.1953125 C17.17835022 18.98648862 18.73683764 18.57859406 21 17 C22.08333333 13.58333333 22.08333333 13.58333333 22 10 C20.49597949 7.85139927 19.32895015 7.16447508 17 6 C15.29297265 5.93003986 13.58331997 5.91559846 11.875 5.9375 C10.26625 5.958125 8.6575 5.97875 7 6 Z " fill="#404040" transform="translate(1294,774)"/>
<path d="M0 0 C2.31 0 4.62 0 7 0 C7 5.61 7 11.22 7 17 C13.6 17 20.2 17 27 17 C27 11.39 27 5.78 27 0 C29.31 0 31.62 0 34 0 C34 13.53 34 27.06 34 41 C31.69 41 29.38 41 27 41 C27 35.06 27 29.12 27 23 C20.4 23 13.8 23 7 23 C7 28.94 7 34.88 7 41 C4.69 41 2.38 41 0 41 C0 27.47 0 13.94 0 0 Z " fill="#404040" transform="translate(656,774)"/>
<path d="M0 0 C2.31 0 4.62 0 7 0 C7.33 4.95 7.66 9.9 8 15 C9.5159375 13.2365625 9.5159375 13.2365625 11.0625 11.4375 C11.70574219 10.71433594 12.34898438 9.99117187 13.01171875 9.24609375 C14.27042436 7.8241768 15.50571291 6.38087779 16.70703125 4.91015625 C20.81009951 0.21132633 20.81009951 0.21132633 24.44140625 -0.43359375 C26.67368545 -0.43708714 28.79181877 -0.31545446 31 0 C25.81643758 6.13842918 20.42287737 12.07341663 15 18 C18.12335592 25.0773916 24.04742738 31.23170189 29.5625 36.5625 C30.366875 37.366875 31.17125 38.17125 32 39 C32 39.66 32 40.32 32 41 C28.30847556 41.72620153 26.55153838 42.01545422 23 41 C18.80858115 37.40011203 15.43647025 33.31317605 12 29 C10.68 27.35 9.36 25.7 8 24 C7.67 29.61 7.34 35.22 7 41 C4.69 41 2.38 41 0 41 C0 27.47 0 13.94 0 0 Z " fill="#404040" transform="translate(1331,774)"/>
<path d="M0 0 C1.134375 0.020625 2.26875 0.04125 3.4375 0.0625 C7.07850466 6.94682676 9.98558543 14.09364116 12.86621094 21.31860352 C13.69354432 23.39013416 14.53008668 25.45779067 15.3671875 27.52539062 C15.89639146 28.84613067 16.42505707 30.16708658 16.953125 31.48828125 C17.43040039 32.67848877 17.90767578 33.86869629 18.39941406 35.0949707 C19.4375 38.0625 19.4375 38.0625 19.4375 41.0625 C17.1275 41.0625 14.8175 41.0625 12.4375 41.0625 C11.1175 38.0925 9.7975 35.1225 8.4375 32.0625 C2.8275 32.0625 -2.7825 32.0625 -8.5625 32.0625 C-9.8825 35.0325 -11.2025 38.0025 -12.5625 41.0625 C-14.8725 41.0625 -17.1825 41.0625 -19.5625 41.0625 C-18.85040736 36.40422732 -17.19309518 32.29380797 -15.4375 27.953125 C-15.13054199 27.18570984 -14.82358398 26.41829468 -14.50732422 25.62762451 C-13.86045767 24.01313012 -13.21148947 22.39947639 -12.56054688 20.78662109 C-11.56111098 18.30905666 -10.56913014 15.82860327 -9.578125 13.34765625 C-8.94835356 11.77847042 -8.31816004 10.20945391 -7.6875 8.640625 C-7.38956543 7.89588928 -7.09163086 7.15115356 -6.78466797 6.3838501 C-4.2314885 0.07423664 -4.2314885 0.07423664 0 0 Z M-0.5625 9.0625 C-3.5325 16.9825 -3.5325 16.9825 -6.5625 25.0625 C-2.2725 25.0625 2.0175 25.0625 6.4375 25.0625 C4.4575 19.7825 2.4775 14.5025 0.4375 9.0625 C0.1075 9.0625 -0.2225 9.0625 -0.5625 9.0625 Z " fill="#404040" transform="translate(838.5625,773.9375)"/>
<path d="M0 0 C2.31 0 4.62 0 7 0 C7.01401855 1.3317627 7.01401855 1.3317627 7.02832031 2.69042969 C7.07240681 5.99345919 7.13404746 9.29520007 7.20751953 12.59765625 C7.23569611 14.02526937 7.25692727 15.45303753 7.27099609 16.88085938 C7.29247392 18.93700332 7.33913974 20.99129002 7.390625 23.046875 C7.41157227 24.28276367 7.43251953 25.51865234 7.45410156 26.79199219 C8.09071598 30.53309841 9.01069774 31.73676535 12 34 C14.25060413 34.51602576 14.25060413 34.51602576 16.5625 34.3125 C17.32691406 34.28800781 18.09132813 34.26351562 18.87890625 34.23828125 C21.18626781 34.05365698 21.18626781 34.05365698 24 33 C25.38122152 29.60426563 25.20526383 25.88569243 25.31640625 22.265625 C25.35830078 20.97011719 25.40019531 19.67460938 25.44335938 18.33984375 C25.48316671 16.97656524 25.52287906 15.61328394 25.5625 14.25 C25.60572274 12.87108125 25.64933821 11.49217474 25.69335938 10.11328125 C25.79943958 6.7422881 25.9014985 3.37122174 26 0 C28.31 0 30.62 0 33 0 C33.0995024 4.28663998 33.1717631 8.57265331 33.21972656 12.86010742 C33.23973822 14.31595584 33.26695677 15.77172494 33.30175781 17.22729492 C33.65127974 32.23103752 33.65127974 32.23103752 29 38 C24.62265548 41.97940411 18.69083915 42.12752581 13 42 C8.47570402 41.15827052 5.74244505 39.78051915 2.5625 36.4375 C-0.03258923 32.3891608 -0.13288513 29.51188428 -0.09765625 24.8046875 C-0.0962413 24.09724396 -0.09482635 23.38980042 -0.09336853 22.66091919 C-0.087766 20.39890331 -0.07521318 18.13698602 -0.0625 15.875 C-0.05748532 14.34244935 -0.05292236 12.80989714 -0.04882812 11.27734375 C-0.03779577 7.51819112 -0.02052952 3.75911228 0 0 Z " fill="#404040" transform="translate(747,774)"/>
<path d="M0 0 C2.64 0 5.28 0 8 0 C10.14277039 5.35426651 12.27883415 10.71114033 14.40869141 16.07055664 C15.13438544 17.8938832 15.86191585 19.71647997 16.59130859 21.53833008 C17.63861498 24.15517113 18.67931744 26.77455439 19.71875 29.39453125 C20.04685669 30.21025101 20.37496338 31.02597076 20.7130127 31.8664093 C21.01332397 32.62697128 21.31363525 33.38753326 21.62304688 34.17114258 C21.88952026 34.83954666 22.15599365 35.50795074 22.43054199 36.1966095 C23 38 23 38 23 41 C20.69 41 18.38 41 16 41 C13 34.375 13 34.375 13 31 C7.06 31.33 1.12 31.66 -5 32 C-6.32 34.97 -7.64 37.94 -9 41 C-11.31 41 -13.62 41 -16 41 C-13.59517797 33.39033587 -10.68318271 26.01037134 -7.70166016 18.61352539 C-6.86737135 16.54357256 -6.03689438 14.47212124 -5.20703125 12.40039062 C-1.16449458 2.32898915 -1.16449458 2.32898915 0 0 Z M3 9 C0.03 16.92 0.03 16.92 -3 25 C1.29 25 5.58 25 10 25 C8.23196827 19.52752083 6.34565002 14.24978815 4 9 C3.67 9 3.34 9 3 9 Z " fill="#404040" transform="translate(1006,774)"/>
<path d="M0 0 C1.134375 0.020625 2.26875 0.04125 3.4375 0.0625 C7.07850466 6.94682676 9.98558543 14.09364116 12.86621094 21.31860352 C13.69354432 23.39013416 14.53008668 25.45779067 15.3671875 27.52539062 C15.89639146 28.84613067 16.42505707 30.16708658 16.953125 31.48828125 C17.43040039 32.67848877 17.90767578 33.86869629 18.39941406 35.0949707 C19.4375 38.0625 19.4375 38.0625 19.4375 41.0625 C17.1275 41.0625 14.8175 41.0625 12.4375 41.0625 C11.1175 38.0925 9.7975 35.1225 8.4375 32.0625 C2.8275 32.0625 -2.7825 32.0625 -8.5625 32.0625 C-9.8825 35.0325 -11.2025 38.0025 -12.5625 41.0625 C-14.8725 41.0625 -17.1825 41.0625 -19.5625 41.0625 C-17.39234057 32.98868979 -14.39287816 25.28339419 -11.26416016 17.5456543 C-10.42724047 15.47461177 -9.59794988 13.40062759 -8.76953125 11.32617188 C-4.25102143 0.07457932 -4.25102143 0.07457932 0 0 Z M-0.5625 9.0625 C-3.5325 16.9825 -3.5325 16.9825 -6.5625 25.0625 C-2.2725 25.0625 2.0175 25.0625 6.4375 25.0625 C4.4575 19.7825 2.4775 14.5025 0.4375 9.0625 C0.1075 9.0625 -0.2225 9.0625 -0.5625 9.0625 Z " fill="#404040" transform="translate(418.5625,773.9375)"/>
<path d="M0 0 C0.46148438 0.34933594 0.92296875 0.69867187 1.3984375 1.05859375 C-0.375 4.94140625 -0.375 4.94140625 -2.4140625 5.99609375 C-4.6015625 6.05859375 -4.6015625 6.05859375 -6.7890625 4.62109375 C-10.68427121 2.45708891 -14.22623612 2.61160559 -18.6015625 3.05859375 C-19.5915625 3.55359375 -19.5915625 3.55359375 -20.6015625 4.05859375 C-20.6015625 6.03859375 -20.6015625 8.01859375 -20.6015625 10.05859375 C-19.42078125 10.4453125 -18.24 10.83203125 -17.0234375 11.23046875 C-15.46593664 11.75589073 -13.90865637 12.28196688 -12.3515625 12.80859375 C-11.57425781 13.06125 -10.79695312 13.31390625 -9.99609375 13.57421875 C-5.68765645 15.04718877 -2.38527248 16.25610331 0.3984375 20.05859375 C1.95467741 24.51657265 1.79977818 28.11631563 -0.0390625 32.43359375 C-4.02079952 36.51244631 -7.59856666 37.91434504 -13.28515625 38.1875 C-19.89589135 37.88492821 -24.39534117 36.10124699 -29.6015625 32.05859375 C-28.7890625 30.12109375 -28.7890625 30.12109375 -27.6015625 28.05859375 C-26.1165625 27.56359375 -26.1165625 27.56359375 -24.6015625 27.05859375 C-23.7559375 27.53296875 -22.9103125 28.00734375 -22.0390625 28.49609375 C-17.57269872 30.5262591 -13.45355553 30.73054243 -8.6015625 30.05859375 C-7.9415625 29.39859375 -7.2815625 28.73859375 -6.6015625 28.05859375 C-6.52417307 25.50629411 -6.52417307 25.50629411 -7.6015625 23.05859375 C-9.85124429 21.71794831 -9.85124429 21.71794831 -12.6640625 20.99609375 C-25.38087666 16.88962251 -25.38087666 16.88962251 -28.6015625 12.05859375 C-29.27540205 8.33474362 -29.36489926 4.67386887 -27.7265625 1.20703125 C-20.7346949 -8.13079192 -8.36511053 -5.83573916 0 0 Z " fill="#404040" transform="translate(815.6015625,777.94140625)"/>
<path d="M0 0 C8.91 0 17.82 0 27 0 C27 1.98 27 3.96 27 6 C20.4 6 13.8 6 7 6 C7 9.63 7 13.26 7 17 C12.94 17 18.88 17 25 17 C25 18.98 25 20.96 25 23 C19.06 23 13.12 23 7 23 C7 26.96 7 30.92 7 35 C13.6 35 20.2 35 27 35 C27 36.98 27 38.96 27 41 C18.09 41 9.18 41 0 41 C0 27.47 0 13.94 0 0 Z " fill="#404040" transform="translate(699,774)"/>
<path d="M0 0 C8.91 0 17.82 0 27 0 C27 1.98 27 3.96 27 6 C20.4 6 13.8 6 7 6 C7 9.63 7 13.26 7 17 C12.61 17 18.22 17 24 17 C24 18.98 24 20.96 24 23 C18.39 23 12.78 23 7 23 C7 26.96 7 30.92 7 35 C13.6 35 20.2 35 27 35 C27 36.98 27 38.96 27 41 C18.09 41 9.18 41 0 41 C0 27.47 0 13.94 0 0 Z " fill="#404040" transform="translate(1124,774)"/>
<path d="M0 0 C22.65384615 0 22.65384615 0 27.8125 4.625 C29.64609144 8.29218289 30.13155555 11.91446945 30 16 C28.5797027 19.26668379 26.73781644 21.7184863 24 24 C18.57364835 25.80878388 12.66885438 25.05200784 7 25 C7 30.28 7 35.56 7 41 C4.69 41 2.38 41 0 41 C0 27.47 0 13.94 0 0 Z M7 6 C7 10.29 7 14.58 7 19 C14.95576232 19.85023345 14.95576232 19.85023345 21.8125 16.8125 C23.17017527 14.1057731 23.17017527 14.1057731 23 11.375 C21.76825614 8.44960834 20.7175566 7.61297152 18 6 C15.18170117 5.63899466 15.18170117 5.63899466 12.25 5.8125 C10.5175 5.874375 8.785 5.93625 7 6 Z " fill="#404040" transform="translate(370,774)"/>
<path d="M0 0 C2.64 0 5.28 0 8 0 C10.97 5.28 13.94 10.56 17 16 C18.299375 13.73125 19.59875 11.4625 20.9375 9.125 C21.34605225 8.41230957 21.75460449 7.69961914 22.17553711 6.96533203 C24.1530686 3.51800116 24.1530686 3.51800116 26 0 C28.97 0 31.94 0 35 0 C34.15157472 1.7527907 33.29580103 3.50202402 32.4375 5.25 C31.89609375 6.35472656 31.3546875 7.45945312 30.796875 8.59765625 C29.10672979 11.79790946 27.20215904 14.68632404 25.1875 17.6875 C20.73971004 25.04496753 20.93064007 32.63717472 21 41 C18.69 41 16.38 41 14 41 C14.07863281 40.10023438 14.15726563 39.20046875 14.23828125 38.2734375 C14.49257259 24.91645044 8.45368803 15.9763898 1.17749023 5.10620117 C0 3 0 3 0 0 Z " fill="#404040" transform="translate(1027,774)"/>
<path d="M0 0 C8.25 0 16.5 0 25 0 C25 1.98 25 3.96 25 6 C18.73 6 12.46 6 6 6 C6 10.29 6 14.58 6 19 C11.28 19 16.56 19 22 19 C22 20.98 22 22.96 22 25 C16.72 25 11.44 25 6 25 C6 30.28 6 35.56 6 41 C4.02 41 2.04 41 0 41 C0 27.47 0 13.94 0 0 Z " fill="#404040" transform="translate(575,774)"/>
<path d="M0 0 C11.22 0 22.44 0 34 0 C34 1.98 34 3.96 34 6 C29.71 6 25.42 6 21 6 C21 17.55 21 29.1 21 41 C18.69 41 16.38 41 14 41 C14 29.45 14 17.9 14 6 C9.38 6 4.76 6 0 6 C0 4.02 0 2.04 0 0 Z " fill="#404040" transform="translate(1154,774)"/>
<path d="M0 0 C11.22 0 22.44 0 34 0 C34 1.98 34 3.96 34 6 C29.71 6 25.42 6 21 6 C21 17.55 21 29.1 21 41 C18.69 41 16.38 41 14 41 C14 29.45 14 17.9 14 6 C9.38 6 4.76 6 0 6 C0 4.02 0 2.04 0 0 Z " fill="#404040" transform="translate(871,774)"/>
<path d="M0 0 C11.22 0 22.44 0 34 0 C34 1.98 34 3.96 34 6 C29.38 6 24.76 6 20 6 C20 17.55 20 29.1 20 41 C17.69 41 15.38 41 13 41 C13 29.45 13 17.9 13 6 C8.71 6 4.42 6 0 6 C0 4.02 0 2.04 0 0 Z " fill="#404040" transform="translate(617,774)"/>
<path d="M0 0 C11.22 0 22.44 0 34 0 C34 1.98 34 3.96 34 6 C29.38 6 24.76 6 20 6 C20 17.55 20 29.1 20 41 C17.69 41 15.38 41 13 41 C13 29.45 13 17.9 13 6 C8.71 6 4.42 6 0 6 C0 4.02 0 2.04 0 0 Z " fill="#404040" transform="translate(476,774)"/>
</svg>
